<svg xmlns="http://www.w3.org/2000/svg" viewBox="0 0 167.59 180"><title>Airbnb logo - Brandlogos.net</title><path d="M456,439.51a26.82,26.82,0,0,1-16.41,21,28,28,0,0,1-13.8,1.81A36.42,36.42,0,0,1,412,457.59c-6.5-3.66-13.07-9.27-20.47-17.5,11.78-14.55,19.14-28,21.86-39.91a41,41,0,0,0,.78-15.35,29.47,29.47,0,0,0-4.78-12.31c-5.51-8-15-12.83-25.41-12.83s-19.9,4.8-25.41,12.83a29.47,29.47,0,0,0-4.78,12.31,41.05,41.05,0,0,0,.78,15.35c2.72,11.95,10.08,25.36,21.86,39.92-7.4,8.23-14,13.84-20.47,17.5a36.41,36.41,0,0,1-13.78,4.71,28,28,0,0,1-13.8-1.81,26.82,26.82,0,0,1-16.41-21,28.25,28.25,0,0,1,1.6-13.92c.64-1.81,1.4-3.59,2.33-5.7,1.32-3,2.72-6,4.07-9l.18-.39c12.39-26.88,25.69-54.12,39.54-81l.55-1.07c1.41-2.74,2.87-5.57,4.34-8.31a44.43,44.43,0,0,1,5.08-7.94,18.6,18.6,0,0,1,28.68,0,44.21,44.21,0,0,1,5.08,7.94c1.46,2.71,2.9,5.52,4.3,8.23l.59,1.15c13.84,26.86,27.14,54.1,39.54,81l.11.24c1.38,3,2.8,6.07,4.14,9.11.93,2.11,1.69,3.89,2.33,5.7A28.29,28.29,0,0,1,456,439.51m-72-8.39c-9.75-12.38-16-23.87-18.2-33.5a29.69,29.69,0,0,1-.63-11,18.09,18.09,0,0,1,2.9-7.55c3.37-4.91,9.32-7.83,15.92-7.83s12.56,2.93,15.92,7.84a18.08,18.08,0,0,1,2.9,7.55,29.69,29.69,0,0,1-.63,11c-2.2,9.63-8.45,21.12-18.2,33.5m81.26-9.38c-.81-2.27-1.75-4.46-2.64-6.49-1.38-3.12-2.82-6.25-4.22-9.28l-.11-.24c-12.46-27-25.84-54.43-39.75-81.43l-.59-1.15c-1.42-2.76-2.89-5.61-4.39-8.41a54.67,54.67,0,0,0-6.46-10,30.11,30.11,0,0,0-46.18,0,54.87,54.87,0,0,0-6.46,10c-1.52,2.83-3,5.7-4.43,8.49l-.55,1.07c-13.92,27-27.29,54.41-39.75,81.43l-.18.39c-1.37,3-2.79,6.05-4.15,9.13-.9,2-1.84,4.22-2.64,6.49a39.84,39.84,0,0,0-2.14,19.4,38.36,38.36,0,0,0,23.47,30A39,39,0,0,0,338.78,474a41.25,41.25,0,0,0,4.74-.28,48.32,48.32,0,0,0,18.09-6.11c7.3-4.11,14.51-10.13,22.38-18.73,7.87,8.6,15.08,14.62,22.38,18.73a48.32,48.32,0,0,0,18.09,6.11,41.26,41.26,0,0,0,4.74.28,39,39,0,0,0,14.71-2.85,38.36,38.36,0,0,0,23.47-30,39.88,39.88,0,0,0-2.14-19.4" transform="translate(-300.21 -294)" style="fill:#ff385c"/></svg>